<svg width="239" height="50" viewBox="0 0 239 50" fill="none" xmlns="http://www.w3.org/2000/svg">
<path d="M12.384 0.191998C14.2613 0.191998 15.7333 0.405331 16.8 0.831997C17.9093 1.216 19.04 1.792 20.192 2.56C21.1307 3.15733 21.856 3.456 22.368 3.456C22.752 3.456 23.0507 3.24266 23.264 2.816C23.4773 2.34667 23.648 1.62133 23.776 0.639999H25.248C25.0347 2.85867 24.928 6.784 24.928 12.416H23.456C23.2 9.344 22.1973 6.74133 20.448 4.608C18.7413 2.47466 16.2453 1.408 12.96 1.408C10.6987 1.408 8.82133 2.00533 7.328 3.2C5.87733 4.39466 5.152 5.90933 5.152 7.744C5.152 9.06667 5.472 10.2187 6.112 11.2C6.79467 12.1813 7.648 13.0347 8.672 13.76C9.73867 14.4427 11.232 15.296 13.152 16.32L15.264 17.472C17.9093 18.88 20.0213 20.1387 21.6 21.248C23.2213 22.3573 24.5227 23.6373 25.504 25.088C26.4853 26.496 26.976 28.1387 26.976 30.016C26.976 33.472 25.7173 36.16 23.2 38.08C20.7253 39.9573 17.6107 40.896 13.856 40.896C11.808 40.896 10.1227 40.6827 8.8 40.256C7.52 39.8293 6.28267 39.2533 5.088 38.528C4.14933 37.9307 3.424 37.632 2.912 37.632C2.528 37.632 2.22933 37.8667 2.016 38.336C1.80267 38.7627 1.632 39.4667 1.504 40.448H0.0320001C0.202667 38.3573 0.288 33.664 0.288 26.368H1.76C2.05867 30.336 3.12533 33.536 4.96 35.968C6.79467 38.4 9.61067 39.616 13.408 39.616C15.5413 39.616 17.376 39.0187 18.912 37.824C20.4907 36.5867 21.28 34.7733 21.28 32.384C21.28 30.976 20.8747 29.7387 20.064 28.672C19.2533 27.5627 18.1653 26.5813 16.8 25.728C15.4347 24.8747 13.536 23.808 11.104 22.528C7.60533 20.736 4.93867 18.944 3.104 17.152C1.26933 15.36 0.352 13.0347 0.352 10.176C0.352 7.01867 1.504 4.56533 3.808 2.816C6.15467 1.06666 9.01333 0.191998 12.384 0.191998ZM68.458 1.088C68.1593 3.904 68.01 6.42133 68.01 8.64C68.01 10.8587 68.074 12.608 68.202 13.888H66.73C66.474 10.9013 66.0687 8.61867 65.514 7.04C64.9593 5.46133 64.0633 4.33066 62.826 3.648C61.5887 2.92266 59.818 2.56 57.514 2.56H53.418V32.576C53.418 34.368 53.5887 35.6693 53.93 36.48C54.2713 37.2907 54.8687 37.8453 55.722 38.144C56.5753 38.4427 57.962 38.6347 59.882 38.72V40C57.6633 39.872 54.5273 39.808 50.474 39.808C46.2073 39.808 43.05 39.872 41.002 40V38.72C42.922 38.6347 44.3087 38.4427 45.162 38.144C46.0153 37.8453 46.6127 37.2907 46.954 36.48C47.2953 35.6693 47.466 34.368 47.466 32.576V2.56H43.37C41.066 2.56 39.2953 2.92266 38.058 3.648C36.8207 4.33066 35.9247 5.46133 35.37 7.04C34.8153 8.61867 34.41 10.9013 34.154 13.888H32.682C32.81 12.5227 32.874 10.7733 32.874 8.64C32.874 6.42133 32.7247 3.904 32.426 1.088C35.9673 1.216 41.9833 1.28 50.474 1.28C58.922 1.28 64.9167 1.216 68.458 1.088ZM101.729 1.344C104.161 1.344 105.804 1.25866 106.657 1.088V2.432C105.932 2.60267 105.27 3.008 104.673 3.648C104.076 4.288 103.372 5.33333 102.561 6.784L92.513 24.768V33.216C92.513 34.8373 92.641 36.0107 92.897 36.736C93.153 37.4613 93.6223 37.952 94.305 38.208C95.0303 38.464 96.161 38.6347 97.697 38.72V40C95.7343 39.872 93.025 39.808 89.569 39.808C85.8997 39.808 83.169 39.872 81.377 40V38.72C82.913 38.6347 84.0223 38.464 84.705 38.208C85.4303 37.952 85.921 37.4613 86.177 36.736C86.433 36.0107 86.561 34.8373 86.561 33.216V26.56L74.209 6.016C73.3983 4.65067 72.7157 3.75467 72.161 3.328C71.649 2.85866 71.0943 2.56 70.497 2.432V1.088C73.2277 1.25866 75.105 1.344 76.129 1.344C79.073 1.344 82.0597 1.25866 85.089 1.088V2.432C83.6383 2.432 82.529 2.56 81.761 2.816C80.993 3.02933 80.609 3.54133 80.609 4.352C80.609 5.07733 80.9717 6.08 81.697 7.36L91.361 23.488L99.297 9.536C100.236 7.82933 100.705 6.464 100.705 5.44C100.705 3.648 99.233 2.64533 96.289 2.432V1.088C97.8677 1.25866 99.681 1.344 101.729 1.344ZM126.321 2.368C124.785 2.45333 123.654 2.624 122.929 2.88C122.246 3.136 121.777 3.62667 121.521 4.352C121.265 5.07733 121.137 6.25067 121.137 7.872V33.216C121.137 34.8373 121.265 36.0107 121.521 36.736C121.777 37.4613 122.246 37.952 122.929 38.208C123.654 38.4213 124.785 38.528 126.321 38.528H130.353C133.297 38.528 135.579 37.6533 137.201 35.904C138.865 34.1547 139.867 31.2533 140.208 27.2H141.681C141.553 28.5227 141.489 30.272 141.489 32.448C141.489 34.6667 141.638 37.184 141.937 40C139.163 39.872 134.491 39.808 127.921 39.808C120.027 39.808 114.054 39.872 110.001 40V38.72C111.537 38.6347 112.646 38.464 113.329 38.208C114.054 37.952 114.545 37.4613 114.801 36.736C115.057 36.0107 115.185 34.8373 115.185 33.216V7.872C115.185 6.25067 115.057 5.07733 114.801 4.352C114.545 3.62667 114.054 3.136 113.329 2.88C112.646 2.624 111.537 2.45333 110.001 2.368V1.088C111.793 1.216 114.523 1.28 118.193 1.28C121.606 1.28 124.315 1.216 126.321 1.088V2.368ZM178.176 32.448C178.176 34.6667 178.325 37.184 178.624 40C175.851 39.872 171.179 39.808 164.608 39.808C156.715 39.808 150.741 39.872 146.688 40V38.72C148.224 38.6347 149.333 38.464 150.016 38.208C150.741 37.952 151.232 37.4613 151.488 36.736C151.744 36.0107 151.872 34.8373 151.872 33.216V7.872C151.872 6.25067 151.744 5.07733 151.488 4.352C151.232 3.62667 150.741 3.136 150.016 2.88C149.333 2.624 148.224 2.45333 146.688 2.368V1.088C150.741 1.216 156.715 1.28 164.608 1.28C170.581 1.28 174.827 1.216 177.344 1.088C177.045 3.648 176.896 5.952 176.896 8C176.896 9.664 176.96 10.9867 177.088 11.968H175.616C175.317 8.46933 174.571 6.03733 173.376 4.672C172.224 3.264 170.325 2.56 167.68 2.56H163.008C161.472 2.56 160.341 2.688 159.616 2.944C158.933 3.15733 158.464 3.62667 158.208 4.352C157.952 5.07733 157.824 6.25067 157.824 7.872V19.776H163.136C164.501 19.776 165.547 19.4347 166.272 18.752C166.997 18.0267 167.488 17.2587 167.744 16.448C168 15.5947 168.235 14.528 168.448 13.248H169.92C169.792 14.6987 169.728 16.2773 169.728 17.984V20.416C169.728 22.08 169.856 24.4693 170.112 27.584H168.64C168.384 25.536 167.893 23.936 167.168 22.784C166.443 21.632 165.099 21.056 163.136 21.056H157.824V33.216C157.824 34.8373 157.952 36.0107 158.208 36.736C158.464 37.4613 158.933 37.952 159.616 38.208C160.341 38.4213 161.472 38.528 163.008 38.528H167.68C169.813 38.528 171.499 38.1867 172.736 37.504C173.973 36.8213 174.912 35.7333 175.552 34.24C176.192 32.704 176.64 30.5707 176.896 27.84H178.368C178.24 28.992 178.176 30.528 178.176 32.448ZM196.591 6.144C199.279 6.144 201.476 6.80533 203.183 8.128C204.932 9.45067 205.807 11.2213 205.807 13.44C205.807 15.7867 204.868 17.8987 202.991 19.776C201.156 21.6533 198.916 23.0613 196.271 24C199.556 24.0853 202.351 24.96 204.655 26.624C206.959 28.288 208.111 30.656 208.111 33.728C208.111 36.8 206.916 39.552 204.527 41.984C202.18 44.416 199.172 46.2933 195.503 47.616C191.876 48.9813 188.185 49.664 184.431 49.664V48.512C187.46 48.4267 190.319 47.7867 193.007 46.592C195.695 45.44 197.871 43.7547 199.535 41.536C201.199 39.36 202.031 36.7573 202.031 33.728C202.031 31.2107 201.412 29.1413 200.175 27.52C198.937 25.856 197.295 24.9387 195.247 24.768C195.076 24.8533 194.628 25.0453 193.903 25.344C193.22 25.6 192.665 25.728 192.239 25.728C191.556 25.728 191.215 25.4507 191.215 24.896C191.215 24.512 191.364 24.2133 191.663 24C192.004 23.7867 192.409 23.68 192.879 23.68C193.135 23.68 193.476 23.7227 193.903 23.808C194.372 23.8507 194.777 23.8933 195.119 23.936C196.783 22.656 198.02 21.2267 198.831 19.648C199.641 18.0693 200.047 16.4267 200.047 14.72C200.047 12.7573 199.556 11.3067 198.575 10.368C197.593 9.42933 196.228 8.96 194.479 8.96C192.687 8.96 191.065 9.45067 189.615 10.432C188.164 11.3707 186.948 12.7787 185.967 14.656L184.879 14.144C187.353 8.81066 191.257 6.144 196.591 6.144ZM226.554 6.144C229.54 6.144 231.887 6.848 233.594 8.256C235.3 9.664 236.154 11.648 236.154 14.208C236.154 15.9573 235.684 17.664 234.746 19.328C233.85 20.9493 232.74 22.4427 231.418 23.808C230.138 25.1733 228.431 26.816 226.298 28.736C224.548 30.3573 223.247 31.5947 222.394 32.448C221.54 33.2587 220.772 34.1333 220.09 35.072H233.082C234.234 35.072 235.087 34.9867 235.642 34.816C236.239 34.6027 236.644 34.2827 236.858 33.856C237.071 33.3867 237.242 32.704 237.37 31.808H238.458C238.458 35.7333 238.543 38.5707 238.714 40.32C237.775 40.1067 234.596 40 229.178 40H214.202V38.912C214.927 38.144 216.164 36.928 217.914 35.264C220.346 33.0027 222.372 30.976 223.994 29.184C225.615 27.3493 227.002 25.28 228.154 22.976C229.348 20.672 229.946 18.2187 229.946 15.616C229.946 11.008 227.812 8.704 223.546 8.704C220.047 8.704 217.188 10.7093 214.97 14.72L213.946 14.144C215.055 11.84 216.634 9.94133 218.682 8.448C220.73 6.912 223.354 6.144 226.554 6.144Z" fill="black"/>
</svg>
